<?xml version="1.0" standalone="no"?>
<!DOCTYPE svg PUBLIC "-//W3C//DTD SVG 20010904//EN"
 "http://www.w3.org/TR/2001/REC-SVG-20010904/DTD/svg10.dtd">
<svg version="1.0" xmlns="http://www.w3.org/2000/svg"
 width="512.000000pt" height="512.000000pt" viewBox="0 0 512.000000 512.000000"
 preserveAspectRatio="xMidYMid meet">
<metadata>
Created by potrace 1.14, written by Peter Selinger 2001-2017
</metadata>
<g transform="translate(0.000000,512.000000) scale(0.100000,-0.100000)"
fill="#000000" stroke="none">
<path d="M1699 4998 c0 -32 0 -599 0 -621 1 -16 9 -18 64 -17 34 1 78 1 98 1
l37 -1 0 -499 0 -498 -52 -22 c-67 -28 -253 -139 -313 -188 -26 -21 -56 -45
-67 -53 -37 -29 -172 -165 -217 -220 -110 -134 -219 -318 -274 -464 -36 -95
-82 -263 -90 -327 -4 -29 -11 -76 -15 -104 -9 -53 -5 -356 5 -415 33 -194 76
-339 149 -495 161 -344 447 -633 792 -801 369 -179 774 -220 1173 -118 419
107 788 382 1024 764 107 174 197 420 223 610 3 25 10 68 14 95 4 28 6 122 4
210 -3 155 -5 179 -19 255 -4 19 -9 46 -12 60 -41 230 -190 535 -358 736 -160
190 -418 387 -602 460 l-43 16 0 499 0 499 100 0 100 0 0 330 0 330 -860 0
-860 0 -1 -22z m561 -588 l0 -50 100 0 100 0 0 50 0 50 100 0 100 0 0 -50 0
-49 175 1 c97 0 179 -2 182 -5 4 -5 7 -697 4 -927 l-1 -35 -457 1 -458 0 -3
532 -2 532 80 0 80 0 0 -50z m961 -1267 c120 -60 230 -133 326 -218 65 -57
184 -185 191 -205 2 -6 -193 -10 -537 -10 l-541 0 0 -50 0 -50 -100 0 -100 0
0 50 0 50 -547 2 -548 3 125 126 c159 159 313 268 476 334 51 21 62 21 602 21
l549 -1 104 -52z"/>
</g>
</svg>
